<svg width="96" height="77" viewBox="0 0 96 77" fill="none" xmlns="http://www.w3.org/2000/svg">
<path d="M93.6 52.8H91.2V36.585C91.2 34.68 90.435 32.85 89.085 31.5L74.1 16.515C72.75 15.165 70.92 14.4 69.015 14.4H62.4V7.2C62.4 3.225 59.175 0 55.2 0H7.2C3.225 0 0 3.225 0 7.2V55.2C0 59.175 3.225 62.4 7.2 62.4H9.6C9.6 70.35 16.05 76.8 24 76.8C31.95 76.8 38.4 70.35 38.4 62.4H57.6C57.6 70.35 64.05 76.8 72 76.8C79.95 76.8 86.4 70.35 86.4 62.4H93.6C94.92 62.4 96 61.32 96 60V55.2C96 53.88 94.92 52.8 93.6 52.8ZM24 69.6C20.025 69.6 16.8 66.375 16.8 62.4C16.8 58.425 20.025 55.2 24 55.2C27.975 55.2 31.2 58.425 31.2 62.4C31.2 66.375 27.975 69.6 24 69.6ZM72 69.6C68.025 69.6 64.8 66.375 64.8 62.4C64.8 58.425 68.025 55.2 72 55.2C75.975 55.2 79.2 58.425 79.2 62.4C79.2 66.375 75.975 69.6 72 69.6ZM84 38.4H62.4V21.6H69.015L84 36.585V38.4Z" fill="#1F443D"/>
</svg>
