<svg width="75" height="80" viewBox="0 0 75 80" fill="none" xmlns="http://www.w3.org/2000/svg">
<path d="M70.3906 13.0742L40.3906 0.574229C39.4768 0.195133 38.4972 0 37.5078 0C36.5185 0 35.5388 0.195133 34.625 0.574229L4.625 13.0742C1.82812 14.2305 0 16.9649 0 19.9961C0 51.0117 17.8906 72.4492 34.6094 79.418C36.4531 80.1836 38.5312 80.1836 40.375 79.418C53.7656 73.8398 75 54.5742 75 19.9961C75 16.9649 73.1719 14.2305 70.3906 13.0742ZM37.5156 69.7305L37.5 10.1992L64.9844 21.6524C64.4688 45.3086 52.1562 62.4492 37.5156 69.7305Z" fill="#1F443D"/>
</svg>
