<svg width="114" height="114" viewBox="0 0 114 114" fill="none" xmlns="http://www.w3.org/2000/svg">
<path d="M90.2499 23.75H23.7499C19.9706 23.75 16.3461 25.2513 13.6737 27.9237C11.0013 30.5961 9.49994 34.2207 9.49994 38V76C9.49994 79.7793 11.0013 83.4039 13.6737 86.0763C16.3461 88.7487 19.9706 90.25 23.7499 90.25H90.2499C94.0293 90.25 97.6538 88.7487 100.326 86.0763C102.999 83.4039 104.5 79.7793 104.5 76V38C104.5 34.2207 102.999 30.5961 100.326 27.9237C97.6538 25.2513 94.0293 23.75 90.2499 23.75ZM18.9999 38C18.9999 36.7402 19.5004 35.532 20.3912 34.6412C21.282 33.7504 22.4902 33.25 23.7499 33.25H90.2499C91.5097 33.25 92.7179 33.7504 93.6087 34.6412C94.4995 35.532 94.9999 36.7402 94.9999 38V42.75H18.9999V38ZM94.9999 76C94.9999 77.2598 94.4995 78.468 93.6087 79.3588C92.7179 80.2496 91.5097 80.75 90.2499 80.75H23.7499C22.4902 80.75 21.282 80.2496 20.3912 79.3588C19.5004 78.468 18.9999 77.2598 18.9999 76V52.25H94.9999V76Z" fill="#1F443D"/>
<path d="M33.25 71.2499H52.25C53.5098 71.2499 54.718 70.7495 55.6088 69.8587C56.4996 68.9679 57 67.7597 57 66.4999C57 65.2402 56.4996 64.032 55.6088 63.1412C54.718 62.2504 53.5098 61.7499 52.25 61.7499H33.25C31.9902 61.7499 30.782 62.2504 29.8912 63.1412C29.0004 64.032 28.5 65.2402 28.5 66.4999C28.5 67.7597 29.0004 68.9679 29.8912 69.8587C30.782 70.7495 31.9902 71.2499 33.25 71.2499Z" fill="#1F443D"/>
<path d="M71.2499 71.2499H80.7499C82.0097 71.2499 83.2179 70.7495 84.1087 69.8587C84.9995 68.9679 85.4999 67.7597 85.4999 66.4999C85.4999 65.2402 84.9995 64.032 84.1087 63.1412C83.2179 62.2504 82.0097 61.7499 80.7499 61.7499H71.2499C69.9902 61.7499 68.782 62.2504 67.8912 63.1412C67.0004 64.032 66.4999 65.2402 66.4999 66.4999C66.4999 67.7597 67.0004 68.9679 67.8912 69.8587C68.782 70.7495 69.9902 71.2499 71.2499 71.2499Z" fill="#1F443D"/>
</svg>
